<mxfile host="app.diagrams.net" modified="2024-05-13T12:14:49.648Z" agent="Mozilla/5.0 (X11; Linux x86_64) AppleWebKit/537.36 (KHTML, like Gecko) Chrome/124.0.0.0 Safari/537.36" version="24.4.0" etag="P2ph5pwVcGmH1b1srLKh" type="github">
  <diagram name="Page-1" id="6_zip9Nicg8BZ9hGjAQZ">
    <mxGraphModel>
      <root>
        <mxCell id="0" />
        <mxCell id="1" parent="0" />
      </root>
    </mxGraphModel>
  </diagram>
</mxfile>
